<svg xmlns="http://www.w3.org/2000/svg" viewBox="0 0 688.97 865.57"><defs><style>.cls-1{isolation:isolate;}.cls-10,.cls-2,.cls-5{mix-blend-mode:multiply;}.cls-3{fill:#eaeaea;}.cls-4,.cls-5{fill:#ea5837;}.cls-11,.cls-5{opacity:0.2;}.cls-6{fill:#cd4f30;}.cls-11,.cls-7{fill:#fff;}.cls-10,.cls-8{fill:#e5dfd1;}.cls-9{fill:#e2c9c5;}.cls-10{opacity:0.4;}.cls-11{mix-blend-mode:soft-light;}.cls-12{fill:#fdf9d7;}</style></defs><title>notebook icon</title><g class="cls-1"><g id="shadow"><g class="cls-2"><path class="cls-3" d="M767.47,1460.54c15.16,18.57,40.06,31.25,68.62,33v.21h589.69v-32.89c0-1.3.07-2.6.15-3.89h-.15V664.61a21.49,21.49,0,0,0-21.47-21.5H773.39a21.51,21.51,0,0,0-21.5,21.5v753.83c0,15.58,5.71,30.09,15.49,42.1Z" transform="translate(-736.95 -628.18)"/></g></g><g id="book"><g id="group"><path class="cls-4" d="M1410.85,649.68v795.93H752.45c-9.79-12-15.5-26.53-15.5-42.1V649.68a21.52,21.52,0,0,1,21.51-21.5h630.92A21.49,21.49,0,0,1,1410.85,649.68Z" transform="translate(-736.95 -628.18)"/><path class="cls-5" d="M1329.16,1299.22c-42.15-.82-84.35-2.06-126.52-1.39s-84.34,3.52-126.54,4.62c-33.85.87-67.82.79-101.52-3-24.09-2.66-48.12-5.89-72.32-7.56-26.06-1.79-52.91-2.59-78.67,2.43-21.62,4.21-43.78,12.81-55.68,32.51a1.32,1.32,0,0,1-2.45-.67c1.45-79.14,5.21-158.22,6.53-237.38,1.45-86.59,2.36-173.19,4.1-259.77,1.37-67,2.64-133.91,3.15-200.88H758.46A21.52,21.52,0,0,0,737,649.68v753.83c0,15.57,5.71,30.09,15.5,42.1h658.4V1300.3C1383.61,1300.22,1356.37,1299.74,1329.16,1299.22Z" transform="translate(-736.95 -628.18)"/><path class="cls-6" d="M1410.85,1328v150.84H821.15v-.2c-28.6-1.77-53.55-14.48-68.7-33.1-9.79-12-15.5-26.53-15.5-42.11,0-39.75,37.13-72.33,84.2-75.19V1328Z" transform="translate(-736.95 -628.18)"/><path class="cls-7" d="M1152.17,659.43s5.29-.43,14.56-1,22.51-1.33,38.39-1.9,34.41-1.21,54.27-1.59c9.93-.14,20.19-.44,30.61-.47l31.61-.22,15.86.06a49.58,49.58,0,0,1,17.32,3,41.6,41.6,0,0,1,15,9.26c4.39,4.08,7.24,9.29,9.5,14.4,4.09,10.42,3.72,21.47,3.39,30.18-.28,9.1-.55,17.71-.79,25.65-.52,15.88-1.38,29.12-1.78,38.38s-.92,14.57-.92,14.57a1.15,1.15,0,0,1-2.29,0s-.42-5.3-.92-14.57-1.26-22.5-1.77-38.38c-.25-7.94-.52-16.55-.8-25.65q-.09-3.4-.18-6.92c-.1-2.27-.35-4.37-.51-6.6s-.82-4.29-1.15-6.47a58.39,58.39,0,0,0-2-6.22c-1.9-3.84-4-7.63-7.32-10.45a33.86,33.86,0,0,0-11.27-6.62,38.28,38.28,0,0,0-13.56-2.2l-15.86.06-31.61-.22c-10.42,0-20.68-.33-30.61-.47-19.86-.38-38.39-.93-54.27-1.59s-29.13-1.47-38.39-1.91-14.56-1-14.56-1a.58.58,0,0,1-.53-.62A.59.59,0,0,1,1152.17,659.43Z" transform="translate(-736.95 -628.18)"/><path class="cls-8" d="M1410.85,1341.13v128.06H836.12V1469c-26-1.39-48.94-10.86-63.88-25-.48-.42-.93-.87-1.38-1.32a60,60,0,0,1-12.49-17.76c-.21-.44-.4-.87-.58-1.32a47.76,47.76,0,0,1-3.73-17.78v-1.32a47.78,47.78,0,0,1,3.73-17.76c.18-.44.37-.89.58-1.3a59.84,59.84,0,0,1,12.47-17.78c.45-.44.92-.85,1.37-1.3,14.94-14.12,37.86-23.63,63.91-25v-.17Z" transform="translate(-736.95 -628.18)"/><path class="cls-9" d="M1410.85,1366.34v1.3h-640c.45-.44.92-.85,1.37-1.3Z" transform="translate(-736.95 -628.18)"/><path class="cls-9" d="M1410.85,1385.42v1.3H757.79c.18-.44.37-.89.58-1.3Z" transform="translate(-736.95 -628.18)"/><rect class="cls-9" x="17.11" y="776.3" width="656.78" height="1.32"/><path class="cls-9" d="M1410.85,1423.58v1.32H758.37c-.21-.44-.4-.87-.58-1.32Z" transform="translate(-736.95 -628.18)"/><path class="cls-9" d="M1410.85,1442.66V1444H772.24c-.48-.42-.93-.87-1.38-1.32Z" transform="translate(-736.95 -628.18)"/><path class="cls-10" d="M1323.71,1450.77c-1.72.14-3.45.24-5.19.33-32.77,1.74-65.59-.22-98.38-.37-58.76-.27-117.35,5.4-176.1,5.84-40.31.3-80.61-2.8-120.91-1-29.73,1.3-61,3-89.94-5.44-15.26-4.46-30.79-14.08-40.94-26.53-16.18-19.83-5-43.41,15.2-54.88,12-6.81,26.92-10.21,40.56-11.26,55.79-4.33,113,.76,169,.57,58.48-.22,117-1.06,175.43-1.74q47.86-.57,95.77-.89c37.58-.19,75.16-.06,112.74,1.12a78.69,78.69,0,0,0,9.95-.39v-15H836.12v.17c-26,1.41-49,10.92-63.91,25-.45.45-.92.86-1.37,1.3a59.84,59.84,0,0,0-12.47,17.78c-.21.41-.4.86-.58,1.3a47.78,47.78,0,0,0-3.73,17.76v1.32a47.76,47.76,0,0,0,3.73,17.78c.18.45.37.88.58,1.32a60,60,0,0,0,12.49,17.76c.45.45.9.9,1.38,1.32,14.94,14.13,37.86,23.6,63.88,25v.22q65.48.32,131,.67l263.63,1.35,163.33.84,16.81.08c0-9.91-.47-20.2.14-30.09C1381.7,1441.57,1352.87,1448.61,1323.71,1450.77Z" transform="translate(-736.95 -628.18)"/><path class="cls-11" d="M823.68,980.64c0,56.89-1.33,113.9-6.63,170.12-3.33,35.37-7.46,72.53-5.34,108.19,28.48-15.33,64.89-6.1,96.17-4.64,37.8,1.75,75.46,3.5,114,3.5,76.33,0,152.17,2.59,228.08,3.5,34.2.41,69.2,1.57,103.25-.27,2.45-17.64-3.46-35.34-6.83-52.26-3.87-19.37-3.46-39.22-3.46-59.34V1014c0-54.26,3.51-107.14,3.51-161.38,0-24.08-1.62-48.39-1.76-71.92-.1-18.48,6.3-36-5.25-52.62-20.21-29.07-70.34-32.75-102.14-35-48.7-3.44-96.91-7.12-146.52-7.12-44.5,0-91.64-3.91-135.47,2.15-31.73,4.37-67.6,7.3-98.38,15.12-23.82,6-30,23.75-31.59,46.5C820.06,826,823.68,904.23,823.68,980.64Z" transform="translate(-736.95 -628.18)"/></g></g><g id="text"><path class="cls-12" d="M1299.4,742.7q-40.74,21.09-52.54,38.6Q1229,808.46,1229,863.15v338.11h-60.4L999.89,873.87v194.07l-.35,16.09,4.28,51.46q7.15,35.74,32.53,52.9l2.86,2.5q-49.32-16.44-49.32-105.43l.35-33.6V856.36l-19.3-37.53v205.86q0,97.93,12.87,128.32t60.4,44.31l31.1,33.24H881.59l-5.72-9.65h179.06l-18.58-19.65H869.8q43.59-15.73,57.9-42.18T942,1068.3V782.37L894.46,742.7h180.85l-50.76,33.95,173,337.4v-42.89L1049.22,782.37l50-34,6.79,6.79-44.31,30,135.81,266.63V866q0-62.19-10.18-83.1t-50.22-40.21Zm12.51,26.45-6.43,10.72q-27.52,6.43-37.35,23.77t-9.83,58.43v368.49h-76.84l-4.65-9.65h71.84V865.65q0-50.4,13-70.23T1311.91,769.15Z" transform="translate(-736.95 -628.18)"/></g></g></svg>